<svg width="1116" height="1033" viewBox="0 0 1116 1033" fill="none" xmlns="http://www.w3.org/2000/svg">
<path d="M543.017 640.135C544.701 655.549 547.504 668.404 557.556 668.499C567.608 668.404 570.411 655.549 572.096 640.135C572.096 640.135 593.919 355.972 596.329 322.45C598.736 288.98 581.73 258.595 557.556 258.5C533.383 258.595 516.377 288.98 518.783 322.45C521.193 355.972 543.017 640.135 543.017 640.135Z" fill="white"/>
<path d="M557.669 668.5C547.525 668.5 544.707 655.607 543.017 640.135C543.017 640.135 521.193 355.972 518.783 322.45C516.373 288.928 533.436 258.5 557.669 258.5M557.443 668.5C567.587 668.5 570.405 655.607 572.096 640.135C572.096 640.135 593.919 355.972 596.329 322.45C598.739 288.928 581.677 258.5 557.443 258.5" stroke="white" stroke-width="34"/>
<path d="M557.445 37.5C490.093 37.5 450.804 180.42 430.848 292.135C430.848 292.135 110.3 478.742 65.3984 520.557C20.4967 562.372 27.3566 624.782 104.687 624.782C182.018 624.782 417.751 536.783 417.751 536.783L463.277 745.234C463.277 745.234 379.71 810.765 312.981 853.204C246.252 895.643 291.778 965.543 332.937 954.309C374.097 943.075 498.824 905.005 498.824 905.005C505.642 951.049 523.367 995.5 558.914 995.5C594.461 995.5 609.47 951.049 616.289 905.005C616.289 905.005 741.015 943.075 782.175 954.309C823.335 965.543 868.86 895.643 802.131 853.204C735.402 810.765 651.836 745.234 651.836 745.234L697.361 536.783C697.361 536.783 933.094 624.782 1010.43 624.782C1087.76 624.782 1094.62 562.372 1049.71 520.557C1004.81 478.742 684.265 292.135 684.265 292.135C664.308 180.42 624.798 37.5 557.445 37.5Z" stroke="white" stroke-width="75" stroke-linejoin="round"/>
<circle cx="558.056" cy="792" r="30.5" fill="white" stroke="white" stroke-width="34"/>
</svg>
